<svg xmlns="http://www.w3.org/2000/svg" xmlns:xlink="http://www.w3.org/1999/xlink" width="1080" zoomAndPan="magnify" viewBox="0 0 810 809.999993" height="1080" preserveAspectRatio="xMidYMid meet" version="1.0"><path fill="#2a245e" d="M 585.828125 571.164062 C 585.828125 586.417969 571.335938 598.78125 553.457031 598.78125 C 535.578125 598.78125 521.082031 586.417969 521.082031 571.164062 C 521.082031 555.910156 535.578125 543.546875 553.457031 543.546875 C 571.335938 543.546875 585.828125 555.910156 585.828125 571.164062 Z M 585.828125 571.164062 " fill-opacity="1" fill-rule="nonzero"/><path fill="#02c1c2" d="M 521.300781 551.089844 C 536.386719 561.765625 551.277344 569.308594 565.800781 570.863281 C 574.289062 571.78125 582.65625 570.644531 590.859375 566.898438 C 595.695312 537.976562 592.441406 507.496094 587.6875 476.71875 C 583.171875 461.453125 570.734375 448.386719 556.800781 441.738281 C 538.679688 433.082031 518.035156 435.246094 509.027344 457.488281 C 506.9375 483.984375 510.664062 514.910156 521.300781 551.089844 Z M 521.300781 551.089844 " fill-opacity="1" fill-rule="nonzero"/><path fill="#35cdce" d="M 565.800781 570.863281 C 574.289062 571.777344 582.65625 570.644531 590.863281 566.898438 C 595.695312 537.976562 592.441406 507.496094 587.6875 476.71875 C 583.171875 461.453125 570.734375 448.386719 556.800781 441.738281 C 568.199219 475.957031 571.394531 518.804688 565.800781 570.863281 Z M 565.800781 570.863281 " fill-opacity="1" fill-rule="nonzero"/><path fill="#35cdce" d="M 558.492188 445.480469 C 555.238281 589.707031 522.5625 676.136719 423.097656 677.46875 C 423.097656 677.46875 423.089844 677.46875 423.089844 677.46875 C 419.949219 677.519531 416.742188 677.46875 413.464844 677.339844 C 405.074219 676.332031 397.242188 674.804688 389.945312 672.808594 C 299.882812 648.242188 291.351562 551.539062 302.957031 437.023438 C 302.957031 437.023438 323.433594 437.695312 323.433594 437.695312 C 323.433594 437.695312 400.210938 440.242188 400.210938 440.242188 C 400.210938 440.242188 482.117188 442.949219 482.117188 442.949219 C 482.117188 442.949219 482.148438 442.949219 482.148438 442.949219 C 482.148438 442.949219 546.8125 445.089844 546.8125 445.089844 C 546.8125 445.089844 558.492188 445.480469 558.492188 445.480469 Z M 558.492188 445.480469 " fill-opacity="1" fill-rule="nonzero"/><path fill="#02c1c2" d="M 546.8125 445.089844 C 538.710938 576.882812 507.125 655.886719 424.355469 659.316406 C 424.355469 659.316406 424.347656 659.316406 424.347656 659.316406 C 421.605469 659.441406 418.808594 659.472656 415.953125 659.414062 C 408.644531 658.601562 401.84375 657.261719 395.527344 655.449219 C 320.914062 634.042969 312.863281 545.304688 323.433594 437.699219 C 323.433594 437.699219 400.210938 440.242188 400.210938 440.242188 C 400.210938 440.242188 482.117188 442.953125 482.117188 442.953125 C 482.117188 442.953125 482.148438 442.953125 482.148438 442.953125 C 482.148438 442.953125 546.8125 445.089844 546.8125 445.089844 Z M 546.8125 445.089844 " fill-opacity="1" fill-rule="nonzero"/><path fill="#2a245e" d="M 507.578125 489.761719 C 507.578125 489.761719 531.386719 489.542969 531.386719 489.542969 C 534.394531 489.515625 536.734375 492.101562 536.230469 494.898438 C 536.230469 494.898438 527.476562 543.355469 527.476562 543.355469 C 527.125 545.300781 525.46875 546.792969 523.394531 546.992188 C 515.398438 547.753906 507.398438 547.050781 499.386719 545.191406 C 496.941406 544.625 495.316406 542.390625 495.683594 540.050781 C 495.683594 540.050781 503.011719 493.515625 503.011719 493.515625 C 503.347656 491.367188 505.273438 489.785156 507.578125 489.761719 Z M 507.578125 489.761719 " fill-opacity="1" fill-rule="nonzero"/><path fill="#f0c808" d="M 507.316406 497.773438 C 507.316406 497.773438 506.699219 504.027344 506.699219 504.027344 C 506.601562 505.039062 507.445312 505.929688 508.519531 505.941406 C 508.519531 505.941406 527.148438 506.1875 527.148438 506.1875 C 528.03125 506.199219 528.78125 505.609375 528.929688 504.792969 C 528.929688 504.792969 530.191406 497.8125 530.191406 497.8125 C 530.386719 496.734375 529.472656 495.738281 528.3125 495.769531 C 528.3125 495.769531 509.042969 496.25 509.042969 496.25 C 508.136719 496.273438 507.402344 496.921875 507.316406 497.773438 Z M 507.316406 497.773438 " fill-opacity="1" fill-rule="nonzero"/><path fill="#f0c808" d="M 505.53125 513.09375 C 505.53125 513.09375 504.433594 519.160156 504.433594 519.160156 C 504.261719 520.121094 504.972656 521.039062 506 521.183594 C 506 521.183594 523.847656 523.664062 523.847656 523.664062 C 524.773438 523.792969 525.636719 523.238281 525.84375 522.382812 C 525.84375 522.382812 527.996094 513.550781 527.996094 513.550781 C 528.265625 512.453125 527.351562 511.394531 526.160156 511.414062 C 526.160156 511.414062 507.253906 511.699219 507.253906 511.699219 C 506.394531 511.710938 505.675781 512.292969 505.53125 513.09375 Z M 505.53125 513.09375 " fill-opacity="1" fill-rule="nonzero"/><path fill="#f0c808" d="M 502.515625 529.785156 C 502.515625 529.785156 501.246094 536.808594 501.246094 536.808594 C 501.070312 537.78125 501.804688 538.710938 502.84375 538.835938 C 502.84375 538.835938 521.425781 541.074219 521.425781 541.074219 C 522.378906 541.191406 523.25 540.585938 523.410156 539.695312 C 523.410156 539.695312 524.789062 532.070312 524.789062 532.070312 C 524.96875 531.074219 524.195312 530.128906 523.125 530.035156 C 523.125 530.035156 504.4375 528.398438 504.4375 528.398438 C 503.503906 528.316406 502.671875 528.917969 502.515625 529.785156 Z M 502.515625 529.785156 " fill-opacity="1" fill-rule="nonzero"/><path fill="#2a245e" d="M 307 444.871094 C 342.65625 468.90625 520.042969 474.191406 554.800781 452.421875 C 560.238281 449.015625 559.554688 441.1875 553.644531 438.316406 C 514.976562 419.53125 348.597656 409.894531 307.980469 429.578125 C 301.730469 432.609375 301.175781 440.945312 307 444.871094 Z M 307 444.871094 " fill-opacity="1" fill-rule="nonzero"/><path fill="#2a245e" d="M 446.488281 145.601562 C 445.472656 169.058594 439.609375 186 431.417969 199.8125 C 431.417969 199.8125 459.851562 199.980469 459.851562 199.980469 C 450.210938 184.894531 449.445312 166.925781 455.558594 146.722656 C 455.558594 146.722656 446.488281 145.601562 446.488281 145.601562 Z M 446.488281 145.601562 " fill-opacity="1" fill-rule="nonzero"/><path fill="#02c1c2" d="M 474.644531 216.964844 C 474.644531 216.964844 459.320312 216.355469 459.320312 216.355469 C 459.320312 216.355469 410.234375 214.417969 410.234375 214.417969 C 414.171875 203.792969 423.234375 196.363281 445.429688 197.085938 C 448.917969 197.300781 452.203125 197.578125 455.226562 197.96875 C 469.019531 199.738281 477.417969 203.941406 474.644531 216.964844 Z M 474.644531 216.964844 " fill-opacity="1" fill-rule="nonzero"/><path fill="#35cdce" d="M 474.644531 216.964844 C 474.644531 216.964844 459.320312 216.355469 459.320312 216.355469 C 462.636719 211.285156 460.636719 205.003906 455.226562 197.96875 C 469.023438 199.738281 477.417969 203.941406 474.644531 216.964844 Z M 474.644531 216.964844 " fill-opacity="1" fill-rule="nonzero"/><path fill="#f0c808" d="M 471.167969 136.152344 C 469.902344 146.402344 460.566406 153.683594 450.3125 152.414062 C 440.066406 151.148438 432.78125 141.8125 434.050781 131.5625 C 435.316406 121.3125 444.652344 114.03125 454.902344 115.296875 C 465.152344 116.566406 472.433594 125.902344 471.167969 136.152344 Z M 471.167969 136.152344 " fill-opacity="1" fill-rule="nonzero"/><path fill="#02c1c2" d="M 538.832031 357.414062 C 537.835938 362.59375 534.152344 366.832031 529.15625 368.539062 C 515.132812 373.324219 501.40625 377.1875 487.980469 380.113281 C 426.394531 393.554688 371.046875 387.46875 321.882812 362.015625 C 317.976562 359.996094 315.480469 356.027344 315.355469 351.632812 C 313.453125 285.308594 348.890625 223.242188 417.015625 210.574219 C 431.652344 207.847656 446.628906 208.035156 460.929688 211.214844 C 471.792969 213.628906 482.277344 217.777344 491.921875 223.683594 C 530.300781 247.1875 551.148438 293.796875 538.832031 357.414062 Z M 538.832031 357.414062 " fill-opacity="1" fill-rule="nonzero"/><path fill="#35cdce" d="M 538.832031 357.414062 C 537.835938 362.59375 534.152344 366.832031 529.15625 368.539062 C 515.132812 373.324219 501.40625 377.1875 487.980469 380.113281 C 501.375 324.472656 497.3125 268.421875 460.929688 211.214844 C 471.792969 213.628906 482.277344 217.777344 491.921875 223.683594 C 530.300781 247.1875 551.148438 293.796875 538.832031 357.414062 Z M 538.832031 357.414062 " fill-opacity="1" fill-rule="nonzero"/><path fill="#2a245e" d="M 433.125 238.589844 C 381.089844 245.402344 359.804688 277.402344 353.074219 321.320312 C 352.398438 353.703125 376.261719 356.53125 414.71875 346.265625 C 429.703125 342.265625 445.554688 342.84375 460.25 347.789062 C 500.21875 361.234375 519.320312 350.855469 513.378906 305.957031 C 507.65625 272.003906 492.191406 251.953125 469.089844 242.792969 C 457.699219 238.277344 445.277344 237 433.125 238.589844 Z M 433.125 238.589844 " fill-opacity="1" fill-rule="nonzero"/><path fill="#efc707" d="M 461.542969 307.097656 C 461.488281 305.835938 453.851562 306.007812 446.230469 306.90625 C 438.628906 307.804688 431.050781 309.414062 431.074219 311.046875 C 431.121094 314.308594 438.007812 310.707031 447.59375 309.816406 C 457.699219 308.882812 461.644531 309.617188 461.542969 307.097656 Z M 461.542969 307.097656 " fill-opacity="1" fill-rule="nonzero"/><path fill="#f0c808" d="M 412.25 288.035156 C 412.550781 294.679688 410.148438 300.1875 406.882812 300.335938 C 403.617188 300.484375 400.726562 295.21875 400.425781 288.574219 C 400.121094 281.929688 402.523438 276.421875 405.789062 276.273438 C 409.054688 276.125 411.945312 281.390625 412.25 288.035156 Z M 412.25 288.035156 " fill-opacity="1" fill-rule="nonzero"/><path fill="#f0c808" d="M 483.476562 282.90625 C 483.476562 288.527344 481.015625 293.082031 477.976562 293.082031 C 474.9375 293.082031 472.472656 288.527344 472.472656 282.90625 C 472.472656 277.289062 474.9375 272.730469 477.976562 272.730469 C 481.015625 272.730469 483.476562 277.289062 483.476562 282.90625 Z M 483.476562 282.90625 " fill-opacity="1" fill-rule="nonzero"/><path fill="#2a245e" d="M 409.265625 611.832031 C 410.429688 592.570312 409.5 574.984375 402.058594 562.613281 C 401.039062 560.917969 399.230469 559.835938 397.253906 559.785156 C 371.453125 559.117188 359.644531 572.132812 354.820312 591.976562 C 355.046875 599.449219 358.589844 602.347656 366.535156 599.175781 C 364.980469 611 370.890625 615.113281 384.425781 611.347656 C 382.296875 618.042969 383.644531 621.816406 389.996094 621.375 C 392.597656 621.195312 395.09375 620.285156 397.289062 618.875 C 399.726562 617.308594 402.398438 616.285156 405.355469 615.929688 C 407.480469 615.671875 409.136719 613.96875 409.265625 611.832031 Z M 409.265625 611.832031 " fill-opacity="1" fill-rule="nonzero"/><path fill="#02c1c2" d="M 566.324219 571.335938 C 566.144531 576.183594 565.386719 580.804688 564.09375 585.1875 C 561.636719 593.457031 557.230469 600.898438 550.976562 607.585938 C 548.878906 609.820312 546.203125 611.464844 543.257812 612.367188 C 497.265625 626.511719 452.953125 629.878906 411.214844 616.683594 C 407.609375 615.546875 404.496094 613.238281 402.292969 610.164062 C 397.574219 603.648438 394.523438 596.808594 393.054688 589.652344 C 391.824219 583.632812 391.710938 577.394531 392.695312 570.945312 C 393.476562 565.8125 394.933594 560.558594 397.0625 555.175781 C 398.820312 550.710938 402.347656 547.199219 406.789062 545.375 C 445.957031 529.386719 504.683594 533.308594 552.359375 544.742188 C 559.457031 546.441406 564.746094 552.347656 565.714844 559.585938 C 566.265625 563.644531 566.46875 567.5625 566.324219 571.335938 Z M 566.324219 571.335938 " fill-opacity="1" fill-rule="nonzero"/><path fill="#35cdce" d="M 564.097656 585.1875 C 561.640625 593.457031 557.230469 600.898438 550.976562 607.585938 C 548.878906 609.820312 546.203125 611.464844 543.257812 612.367188 C 497.265625 626.507812 452.953125 629.878906 411.214844 616.683594 C 407.609375 615.546875 404.496094 613.238281 402.292969 610.160156 C 397.574219 603.648438 394.523438 596.808594 393.054688 589.652344 C 450.804688 599.230469 507.839844 598.035156 564.097656 585.1875 Z M 564.097656 585.1875 " fill-opacity="1" fill-rule="nonzero"/><path fill="#2a245e" d="M 500.367188 366.726562 C 500.367188 366.726562 475.171875 359.25 475.171875 359.25 C 454.683594 356.699219 446.308594 369.183594 461.257812 380.847656 C 461.257812 380.847656 490.121094 392.476562 490.121094 392.476562 C 507.136719 396.832031 520.339844 391.253906 528.605469 372.265625 C 528.605469 372.265625 546.050781 340.980469 546.050781 340.980469 C 554.632812 321.320312 539.902344 317.257812 525.5625 332.121094 C 525.5625 332.121094 500.367188 366.726562 500.367188 366.726562 Z M 500.367188 366.726562 " fill-opacity="1" fill-rule="nonzero"/><path fill="#2a245e" d="M 543.792969 345.023438 C 550.234375 352.464844 551.464844 359.867188 545.980469 367.210938 C 551.976562 383.496094 525.820312 390.660156 508.46875 392.757812 C 508.46875 392.757812 543.792969 345.023438 543.792969 345.023438 Z M 543.792969 345.023438 " fill-opacity="1" fill-rule="nonzero"/><path fill="#2a245e" d="M 439.457031 532.914062 C 439.457031 548.164062 424.964844 560.53125 407.085938 560.53125 C 389.207031 560.53125 374.710938 548.164062 374.710938 532.914062 C 374.710938 517.660156 389.207031 505.292969 407.085938 505.292969 C 424.964844 505.292969 439.457031 517.660156 439.457031 532.914062 Z M 439.457031 532.914062 " fill-opacity="1" fill-rule="nonzero"/><path fill="#02c1c2" d="M 407.480469 505.710938 C 405.78125 524.113281 401.828125 540.332031 393.5625 552.378906 C 388.742188 559.421875 382.4375 565.039062 374.257812 568.839844 C 349.140625 553.703125 328.101562 531.410156 307.8125 507.785156 C 299.148438 494.429688 297.3125 476.480469 301.320312 461.574219 C 306.527344 442.175781 321.597656 427.902344 344.351562 435.523438 C 365.839844 451.164062 386.910156 474.105469 407.480469 505.710938 Z M 407.480469 505.710938 " fill-opacity="1" fill-rule="nonzero"/><path fill="#35cdce" d="M 393.566406 552.378906 C 388.742188 559.421875 382.4375 565.039062 374.257812 568.835938 C 349.140625 553.703125 328.105469 531.410156 307.8125 507.785156 C 299.152344 494.429688 297.3125 476.480469 301.320312 461.574219 C 319.90625 492.488281 350.378906 522.773438 393.566406 552.378906 Z M 393.566406 552.378906 " fill-opacity="1" fill-rule="nonzero"/><path fill="#02c1c2" d="M 540.011719 433.816406 C 529.300781 474.742188 490.914062 519.359375 453.152344 550.628906 C 447.535156 555.289062 439.636719 555.972656 433.269531 552.410156 C 429.691406 550.410156 426.4375 548.222656 423.5 545.839844 C 412.628906 537.015625 406.152344 525.605469 403.722656 511.8125 C 403.195312 508.785156 403.484375 505.664062 404.527344 502.769531 C 420.816406 457.492188 444.726562 420.023438 480.324219 394.550781 C 483.398438 392.355469 487.117188 391.257812 490.898438 391.332031 C 505.699219 391.589844 518.019531 397.007812 528.023438 407.199219 C 531.660156 410.898438 534.984375 415.21875 538.019531 420.152344 C 540.53125 424.238281 541.222656 429.171875 540.011719 433.816406 Z M 540.011719 433.816406 " fill-opacity="1" fill-rule="nonzero"/><path fill="#35cdce" d="M 540.011719 433.816406 C 529.300781 474.742188 490.914062 519.359375 453.152344 550.628906 C 447.535156 555.289062 439.636719 555.972656 433.269531 552.410156 C 429.691406 550.410156 426.4375 548.222656 423.5 545.839844 C 463.3125 509.582031 499.386719 465.835938 528.023438 407.199219 C 531.660156 410.898438 534.984375 415.21875 538.019531 420.15625 C 540.53125 424.238281 541.222656 429.171875 540.011719 433.816406 Z M 540.011719 433.816406 " fill-opacity="1" fill-rule="nonzero"/><path fill="#02c1c2" d="M 468.910156 716.5625 C 468.269531 717.335938 467.421875 717.929688 466.476562 718.265625 C 455.976562 722.007812 445.664062 724.320312 435.523438 725.222656 C 412.597656 727.269531 390.585938 722.089844 369.433594 709.902344 C 368.414062 709.3125 367.597656 708.40625 367.113281 707.328125 C 364.496094 701.445312 364.117188 695.84375 365.859375 690.515625 C 366.828125 687.535156 370.078125 685.949219 373.046875 686.972656 C 395.960938 694.902344 419.25 698.34375 442.945312 696.789062 C 451.347656 696.25 459.800781 695.066406 468.3125 693.246094 C 471.84375 692.492188 475.1875 695.257812 475.097656 698.863281 C 474.929688 705.714844 473.011719 711.683594 468.910156 716.5625 Z M 468.910156 716.5625 " fill-opacity="1" fill-rule="nonzero"/><path fill="#35cdce" d="M 468.910156 716.566406 C 468.269531 717.335938 467.421875 717.929688 466.476562 718.265625 C 455.976562 722.007812 445.664062 724.320312 435.523438 725.222656 C 446.183594 718.457031 449.660156 709.316406 442.945312 696.789062 C 451.347656 696.25 459.800781 695.066406 468.3125 693.246094 C 471.84375 692.492188 475.1875 695.257812 475.097656 698.863281 C 474.929688 705.714844 473.011719 711.6875 468.910156 716.566406 Z M 468.910156 716.566406 " fill-opacity="1" fill-rule="nonzero"/><path fill="#02c1c2" d="M 455.023438 747.242188 C 454.644531 748.386719 454.15625 749.519531 453.550781 750.625 C 451.851562 753.78125 448.789062 756.007812 445.277344 756.734375 C 440.386719 757.75 435.445312 758.503906 430.453125 759.019531 C 416.828125 760.417969 402.855469 759.960938 388.527344 757.734375 C 383.5625 756.960938 379.238281 753.886719 376.953125 749.421875 C 375.765625 747.117188 375.070312 744.964844 374.917969 742.984375 C 374.550781 738.394531 378.589844 734.660156 383.148438 735.285156 C 401.367188 737.769531 418.90625 739.078125 435.457031 738.65625 C 439.625 738.554688 443.722656 738.339844 447.75 738.007812 C 452.78125 737.582031 456.585938 742.433594 455.023438 747.242188 Z M 455.023438 747.242188 " fill-opacity="1" fill-rule="nonzero"/><path fill="#35cdce" d="M 455.023438 747.242188 C 454.644531 748.386719 454.15625 749.519531 453.550781 750.625 C 451.851562 753.78125 448.789062 756.007812 445.277344 756.734375 C 440.386719 757.75 435.445312 758.503906 430.453125 759.019531 C 435.070312 753.507812 437.101562 746.882812 435.457031 738.65625 C 439.625 738.554688 443.722656 738.339844 447.75 738.007812 C 452.78125 737.582031 456.585938 742.433594 455.023438 747.242188 Z M 455.023438 747.242188 " fill-opacity="1" fill-rule="nonzero"/></svg>